<svg xmlns="http://www.w3.org/2000/svg" xmlns:xlink="http://www.w3.org/1999/xlink" width="513px" height="480px" viewBox="0 0 513 480"><title>arrow-down-right</title><g id="Page-1" stroke="none" stroke-width="1" fill="none" fill-rule="evenodd"><g id="arrow-down-right" transform="translate(256.819130, 239.926363) scale(-1, 1) rotate(-90.000000) translate(-256.819130, -239.926363) translate(17.000000, -16.000000)" fill="#88C057" fill-rule="nonzero"><path d="M160.857334,9.30933505 L267.438667,115.890668 C279.854667,128.306668 279.854667,148.434668 267.438667,160.850668 C255.012,173.266668 234.884,173.266668 222.468,160.850668 L190.073334,128.456002 C179.385334,345.906668 325.326667,487.282668 474.916,488.594668 C480.324,488.637335 481.422667,496.232002 476.452,497.917335 C320.942667,550.418668 125.625334,454.930668 90.3080004,205.362668 C87.1613338,181.192002 84.7720004,156.744002 83.0440004,132.104002 L54.2760004,160.872002 C41.8600004,173.288002 21.7213338,173.288002 9.31600043,160.872002 C-3.09999957,148.456002 -3.11066624,128.328002 9.31600043,115.912002 L115.897334,9.33066838 C128.302667,-3.10666495 148.430667,-3.10666495 160.857334,9.30933505 Z" id="XMLID_955_"></path></g></g></svg>