<svg height="512" viewBox="0 0 64 64" width="512" xmlns="http://www.w3.org/2000/svg"><path d="m54.916 46.24121a7.01143 7.01143 0 0 0 -5.84375 5.833.99842.99842 0 0 0 .15429.709c2.77888 4.309-.59854 8.63018-5.439 6.38886a3.0226 3.0226 0 0 0 -.602-3.36151l-1.84081-1.83256a3.95034 3.95034 0 0 0 -.74414-4.52387l-5.00977-5.00976a3.96022 3.96022 0 0 0 -5.59668 0 1.83379 1.83379 0 0 1 -2.14941.33789 30.2478 30.2478 0 0 1 -12.32911-12.32865 1.8376 1.8376 0 0 1 .33594-2.15185 3.97487 3.97487 0 0 0 0-5.59619l-5.00976-5.01026c-1.95739-1.89147-4.65774-1.33449-6.28119.68465a8.95528 8.95528 0 0 0 -1.89361 9.91004 52.10709 52.10709 0 0 0 27.334 27.335 8.92841 8.92841 0 0 0 6.685.17527l2.25641 2.25641a2.97876 2.97876 0 0 0 3.407.5752c6.16028 3.68843 12.53339-2.04326 8.76684-8.59766a4.909 4.909 0 0 1 9.07033-1.31627.99987.99987 0 0 0 1.74608-.97475 6.96974 6.96974 0 0 0 -7.01666-3.50199zm-24.126 9.5459a49.91127 49.91127 0 0 1 -15.67574-10.60547 50.54593 50.54593 0 0 1 -10.60938-15.67964 6.96616 6.96616 0 0 1 1.46973-7.708l.68457-.68457a1.96048 1.96048 0 0 1 2.76855 0l5.00977 5.01025a1.96623 1.96623 0 0 1 0 2.76807 3.84949 3.84949 0 0 0 -.68357 4.51269 32.25 32.25 0 0 0 13.14451 13.14356 3.84337 3.84337 0 0 0 4.50976-.68555 2.00432 2.00432 0 0 1 2.76856 0l5.00976 5.00976a1.961 1.961 0 0 1 0 2.76856l-.68554.68555a6.967 6.967 0 0 1 -7.71098 1.46479zm9.56738 2.85547-1.79559-1.79492a9.445 9.445 0 0 0 1.53355-1.29166l1.67321 1.66565a1.0015 1.0015 0 0 1 -1.41113 1.42093z"/><path d="m16.68164 21.15527a14.25374 14.25374 0 0 0 6.25684 1.11524 14.99866 14.99866 0 0 0 29.126-5.03906c-.56197-18.74332-27.12195-20.36421-29.8887-1.81645a15.41911 15.41911 0 0 1 -5.49707 3.89355 1.00682 1.00682 0 0 0 .00293 1.84672zm20.38281-3.92382a5 5 0 1 1 5-4.99992 5.00589 5.00589 0 0 1 -5 4.99992zm0 2a6.95907 6.95907 0 0 0 2.74231-.5608 8.91864 8.91864 0 0 1 6.22718 7.94758 13.02571 13.02571 0 0 1 -17.94581-.02363 9.0594 9.0594 0 0 1 6.23145-7.92523 6.95853 6.95853 0 0 0 2.74487.56208zm-13.17871-2.72754a1.0038 1.0038 0 0 0 .24414-.5625 12.94577 12.94577 0 0 1 12.93457-11.71c10.38354-.1 16.66663 11.99678 10.68048 20.39209a10.88138 10.88138 0 0 0 -5.89825-7.29468 6.99389 6.99389 0 1 0 -9.56049.0036 11.11813 11.11813 0 0 0 -5.9 7.2865 12.81331 12.81331 0 0 1 -1.77-3.64875 1.0015 1.0015 0 0 0 -.97656-.7124 14.44858 14.44858 0 0 1 -3.93848-.2417 17.78549 17.78549 0 0 0 4.18459-3.51216z"/><path d="m53.03906 11.417a1.001 1.001 0 0 0 1.28125.59814l2.81934-1.02587a1.00016 1.00016 0 0 0 -.6836-1.87988l-2.81933 1.02587a.99912.99912 0 0 0 -.59766 1.28174z"/><path d="m51.81055 7.90723a.99293.99293 0 0 0 .57226-.18067l2.457-1.7207a1 1 0 1 0 -1.14648-1.63867l-2.457 1.7207a1.00612 1.00612 0 0 0 .57422 1.81934z"/><path d="m54 15.74951a1.001 1.001 0 0 0 1.083.90918l2.98828-.26123a.99988.99988 0 0 0 -.17383-1.99219l-2.98828.26123a.99964.99964 0 0 0 -.90917 1.08301z"/></svg>