<svg xmlns="http://www.w3.org/2000/svg" xmlns:xlink="http://www.w3.org/1999/xlink" x="0px" y="0px" viewBox="0 0 623.62 177.45" style="enable-background:new 0 0 623.62 177.45;" xml:space="preserve"><style type="text/css">	.Arched_x0020_Green{fill:url(#SVGID_1_);stroke:#FFFFFF;stroke-width:0.25;stroke-miterlimit:1;}	.st0{fill:#A3A7AA;}	.st1{fill:#BF062F;}	.st2{fill:#00188A;}</style><linearGradient id="SVGID_1_" gradientUnits="userSpaceOnUse" x1="3369.5305" y1="792" x2="3370.2375" y2="791.2929">	<stop offset="0" style="stop-color:#20AC4B"></stop>	<stop offset="0.9831" style="stop-color:#19361A"></stop></linearGradient><g id="Cool_Grey_6">	<path class="st0" d="M141.56,46.4c0.93-0.4,2.11-0.91,3.38-1.19c-7.82-2.11-9.75,2.34-13.25,5.06c0.24-0.11,0.47-0.23,0.68-0.35  c2.54-1.47,5-4.86,9.55-4.24c-3.66,0.39-10.4,6.64-14.37,12.91c-5.78,9.12-8.05,6.27-11.16,9.52c-0.37-1.58,0.9-2.17,0.29-2.7  c-0.43-0.36-2.36-0.1-2.9-0.1c-0.84,0-1.72,0.2-2.53,0.16c0.74-0.62,1.55-1.14,2.32-1.69c-1.49-0.64-4.07-0.67-5.69-0.63  c-1.66,0.04-3.4,0.96-5,0.86c1.29-1.47,3.2-2.58,4.84-3.61c0.9-0.56,1.94-1.1,2.92-1.49c0.36-0.14,0.81-0.12,0.92-0.49  c-1.03-0.45-2.15-0.51-3.25-0.55c0.57-0.36,1.07-0.8,1.66-1.11c-1.37-0.42-2.73-0.32-4.17-0.09c0.96-0.97,2.91-1.49,4.18-1.87  c1.56-0.46,3.16-0.67,4.74-0.96c-1.05-1.41-2.74-1.89-4.39-2.32c-2.17-0.56-4.3-1.04-6.51-1.05c1.01-0.35,2.13-0.6,3.18-0.89  c1.65-0.44,3.31-0.22,4.99-0.34c-0.51-1.32-2.88-2.96-4.06-3.54c-1.35-0.67-2.75-1.07-4.11-1.68c1.6-0.78,3.5,0.12,5.14-0.04  c-0.5-0.65-1.73-1.59-2.4-1.95c6.75,0.57,6.96,5.17,13.42,7.97c-2.94-2.15-5.79-5.51-8.39-7.82c-3.89-3.46-15.47-2.36-19.28,0.43  c5.01-1.6,8.7-1.6,11.99-0.37c-2.82-0.34-15.33,3.49-18.91,8.13c0.14-0.02,15.02-6.16,21.99-3.33  c-5.54,0.06-20.05,8.67-23.18,13.33c0.72-0.17,14.62-8.75,22.06-5.91c-3.8,0.5-10.21,4-14.07,7.1c5.62-1.28,12.96-2.25,13.75-1.45  c-3.22-0.12-14.01,6.55-16.73,12.06c2.64-2.18,15.98-7.31,18.72-6.08c-1.86,1.32-6.67,4.68-6.42,8.02  c1.43-2.89,7.78-6.37,12.74-6.35c-2.31,1.23-4.72,5.09-5.44,8.71c2.27-3.37,2.35-4.07,10.39-8.05c2.42-1.2,5.16-2.31,6.24-4.11  C125.07,64.27,133.29,49.93,141.56,46.4z"></path></g><g id="Red__x23_200">	<path class="st1" d="M106.67,81.28c0,0,54.88-14.18,55.23-2.98c0.35,11.2-10.29,29.03,15.3,21.34s59.38-4.47,59.38-4.47  s-34.39,3.95-57.31,11.99s-25.01,0.88-20.46-16.23c4.54-17.11-58.62,2.57-58.62,2.57C103.48,89.65,105.45,85.72,106.67,81.28z   M82.53,115.27c0,0,71.09-23,66.55-5.89c-4.54,17.11-2.46,24.27,20.46,16.23s55.11-18.97,55.11-18.97s-31.59,3.75-57.18,11.44  s-14.95-10.14-15.3-21.34c-0.35-11.2-58.55,6.23-58.55,6.23C90.47,107.12,86.75,111.22,82.53,115.27z M28.37,84.08  c-0.88,32.08,20.88,53.2,46.71,50.89c13.77-1.23,68.47-22.39,63.89-5.27s-2.49,24.24,20.65,16.23  c29.74-10.29,51.9-23.89,51.9-23.89s-19.9,6.18-53.99,16.36c-25.83,7.72-15.09-10.14-15.44-21.34c-0.35-11.2-51.76,4.88-67.11,9.45  C59.23,131.2,32.14,117.26,28.37,84.08z"></path>	<g>		<path class="st1" d="M244.34,96.07l-25.01,29.26h6.2l5.02-5.88h22.48l1.85,5.88h5.74l-9.29-29.26H244.34z M247.22,100.74   l4.4,14.04h-17.15l12.04-14.04H247.22z"></path>		<polygon class="st1" points="269.1,125.33 274.4,125.33 282.24,96.07 276.94,96.07   "></polygon>		<path class="st1" d="M321.6,96.42c-1.34-0.18-4.48-0.3-9.34-0.35h-18.52l-7.84,29.26h5.3l2.87-10.71h13.59   c3.09,0.01,5.1,0.03,5.65,0.05c0.54,0.02,1.14,0.08,1.75,0.17c1.34,0.24,1.85,0.93,1.7,2.3c-0.13,0.85-0.5,2.41-1.1,4.64   l-0.95,3.56h5.3l1.2-4.48c0.64-2.41,0.99-3.98,1.05-4.83c0.07-0.95-0.15-1.79-0.65-2.51c-0.25-0.34-0.56-0.63-0.92-0.87   c0.85-0.33,1.58-0.75,2.19-1.25c0.67-0.56,1.24-1.32,1.69-2.24c0.43-0.88,0.86-2.15,1.3-3.79c0.6-2.25,0.74-3.99,0.42-5.31   C325.79,97.98,324.2,96.76,321.6,96.42z M320.61,104.94c-0.6,2.24-1.4,3.65-2.36,4.17c-0.69,0.36-1.54,0.59-2.52,0.69   c-1.05,0.1-3.46,0.15-7.18,0.15h-13.22l2.47-9.21h13.59c3.44,0,5.79,0.06,6.99,0.18c1.34,0.13,1.93,0.42,2.18,0.64   C321.07,101.98,321.09,103.18,320.61,104.94z"></path>		<path class="st1" d="M386.51,96.42c-1.34-0.18-4.48-0.3-9.34-0.35h-18.52l-7.84,29.26h5.3l2.87-10.71h13.59   c3.09,0.01,5.1,0.03,5.65,0.05c0.54,0.02,1.14,0.08,1.75,0.17c1.34,0.24,1.85,0.93,1.7,2.3c-0.13,0.85-0.5,2.41-1.1,4.64   l-0.95,3.56h5.3l1.2-4.48c0.64-2.4,0.99-3.98,1.05-4.83c0.07-0.95-0.15-1.79-0.65-2.51c-0.25-0.34-0.56-0.63-0.92-0.87   c0.85-0.33,1.58-0.75,2.19-1.25c0.67-0.56,1.24-1.32,1.69-2.24c0.43-0.89,0.86-2.12,1.3-3.79c0.61-2.26,0.74-3.99,0.42-5.31   C390.69,97.98,389.11,96.76,386.51,96.42z M376.29,100.74c3.44,0,5.79,0.06,6.99,0.18c1.34,0.13,1.93,0.42,2.18,0.64   c0.29,0.24,0.68,1.01,0.05,3.38c-0.6,2.24-1.4,3.65-2.36,4.17c-0.69,0.36-1.54,0.59-2.52,0.69c-1.05,0.1-3.46,0.15-7.18,0.15   h-13.22l2.47-9.21H376.29z"></path>		<polygon class="st1" points="396.25,125.33 425.99,125.33 427.24,120.66 402.79,120.66 404.98,112.51 428.36,112.51    429.61,107.85 406.23,107.85 408.13,100.74 432.55,100.74 433.8,96.07 404.09,96.07   "></polygon>		<path class="st1" d="M475.3,99.8c-0.21-0.91-0.7-1.68-1.45-2.3c-0.73-0.59-1.61-0.96-2.62-1.1c-0.99-0.13-3.82-0.24-8.66-0.33   h-18.79l-7.84,29.26h5.3l2.81-10.49h13.87c2.97-0.01,4.77-0.03,5.42-0.04c1.85-0.06,3.21-0.2,4.16-0.44   c0.97-0.24,1.98-0.71,2.99-1.39c1.01-0.68,1.87-1.62,2.54-2.79c0.65-1.14,1.24-2.69,1.75-4.61   C475.45,103.04,475.62,101.15,475.3,99.8z M461.67,100.74c3.54,0.07,5.74,0.15,6.54,0.25c0.68,0.08,1.19,0.28,1.52,0.58   c0.07,0.07,0.3,0.28,0.28,0.87c-0.01,0.38-0.12,1.19-0.57,2.89c-0.33,1.23-0.66,2.16-0.97,2.74c-0.28,0.53-0.64,0.94-1.07,1.22   c-0.62,0.4-1.32,0.65-2.09,0.73c-0.87,0.09-3.07,0.15-6.54,0.16h-13.49l2.53-9.43H461.67z"></path>		<path class="st1" d="M498.29,96.07l-25.01,29.26h6.2l5.02-5.88h22.48l1.85,5.88h5.74l-9.29-29.26H498.29z M501.18,100.74   l4.4,14.04h-17.15l12.04-14.04H501.18z"></path>		<polygon class="st1" points="523.06,125.33 528.36,125.33 536.19,96.07 530.9,96.07   "></polygon>		<path class="st1" d="M580.26,100.05c-0.52-2.07-2.1-3.29-4.7-3.63c-1.34-0.18-4.48-0.3-9.34-0.35H547.7l-7.84,29.26h5.3   l2.87-10.71h13.59c3.09,0.01,5.1,0.03,5.65,0.05c0.54,0.02,1.14,0.08,1.75,0.17c1.34,0.24,1.85,0.93,1.7,2.3   c-0.13,0.84-0.5,2.4-1.1,4.64l-0.95,3.56h5.3l1.2-4.48c0.64-2.4,0.99-3.98,1.05-4.83c0.07-0.95-0.15-1.79-0.65-2.51   c-0.25-0.34-0.56-0.63-0.92-0.87c0.85-0.33,1.58-0.75,2.19-1.25c0.67-0.56,1.24-1.32,1.69-2.24c0.43-0.88,0.86-2.15,1.3-3.79   C580.44,103.1,580.58,101.37,580.26,100.05z M574.57,104.94c-0.6,2.24-1.4,3.65-2.36,4.17c-0.69,0.36-1.54,0.59-2.52,0.69   c-1.05,0.1-3.46,0.15-7.18,0.15h-13.22l2.47-9.21h13.59c3.44,0,5.79,0.06,6.99,0.18c1.34,0.13,1.93,0.42,2.18,0.64   C575.02,101.98,575.04,103.18,574.57,104.94z"></path>	</g></g><g id="Reflex_Blue">	<path class="st2" d="M103.67,80.94c-3.44-0.99-6.48-2.04-9.18-3.1c-2.7-1.07-5.07-2.16-7.17-3.27s-3.93-2.23-5.53-3.35  s-2.99-2.25-4.2-3.37s-2.23-2.24-3.1-3.35s-1.59-2.21-2.18-3.3s-1.06-2.17-1.41-3.24c-0.35-1.07-0.6-2.13-0.74-3.18  s-0.19-2.08-0.15-3.11c0.04-1.02,0.17-2.03,0.39-3.03c0.21-0.99,0.51-1.97,0.89-2.94c0.38-0.96,0.84-1.91,1.37-2.83  c0.54-0.92,1.15-1.82,1.84-2.68c0.69-0.87,1.46-1.7,2.3-2.49c0.84-0.79,1.76-1.54,2.76-2.24c0.99-0.69,2.06-1.33,3.19-1.88  c1.13-0.55,2.34-1.03,3.6-1.39c-1.81,0.4-3.56,0.85-5.26,1.35c-1.7,0.5-3.34,1.03-4.94,1.6c-1.59,0.57-3.13,1.17-4.63,1.8  s-2.95,1.28-4.36,1.97s-2.78,1.39-4.12,2.12c-1.34,0.73-2.64,1.49-3.92,2.27c-1.28,0.78-2.53,1.59-3.76,2.43  c-1.23,0.84-2.44,1.71-3.63,2.61c-1.19,0.91-2.37,1.85-3.53,2.83c-1.16,0.98-2.31,2.01-3.44,3.09c-1.13,1.08-2.26,2.21-3.36,3.41  c-1.11,1.19-2.2,2.45-3.26,3.78c-1.07,1.33-2.11,2.73-3.13,4.22c-1.01,1.49-2,3.06-2.93,4.74c-0.35,2.19-0.54,4.21-0.62,6.09  c-0.08,1.89-0.06,3.64,0.04,5.29c0.1,1.65,0.28,3.2,0.51,4.66c0.23,1.47,0.53,2.86,0.87,4.2c0.34,1.34,0.73,2.62,1.17,3.87  c0.44,1.25,0.92,2.46,1.46,3.65c0.53,1.19,1.12,2.36,1.76,3.52s1.33,2.3,2.09,3.44s1.58,2.27,2.48,3.4  c0.9,1.13,1.87,2.25,2.92,3.36c1.67,1.75,3.22,3.26,4.73,4.54c1.51,1.28,2.96,2.34,4.41,3.19c1.45,0.85,2.89,1.5,4.36,1.96  s2.97,0.74,4.52,0.84c1.55,0.1,2.97,0.05,3.8-0.15c0.84-0.21,1.78-0.6,2.79-1.15c1.02-0.55,2.11-1.24,3.26-2.06  c1.15-0.82,2.35-1.75,3.59-2.78s2.52-2.16,3.82-3.36c1.3-1.2,2.62-2.48,3.95-3.81s2.66-2.73,3.98-4.16c1.32-1.43,2.63-2.91,3.9-4.4  c1.27-1.49,2.51-3.01,3.69-4.52s2.29-3.01,3.3-4.47c1.01-1.46,1.92-2.88,2.68-4.21c0.76-1.33,1.36-2.58,1.74-3.67  C103.67,82.58,103.82,81.64,103.67,80.94z M78.24,78.57c0.45,1.11,0.68,1.67,1.15,2.8c1.38,0.73,2.11,1.08,3.65,1.77  c-1.19,0-1.78,0-2.92-0.01c0.48,1.14,0.72,1.72,1.21,2.89c-1.25-1.15-1.84-1.73-2.95-2.9c-1.11-0.01-1.65-0.02-2.71-0.04  c0.44-0.72,0.66-1.07,1.06-1.77c-1.02-1.18-1.5-1.77-2.39-2.96c1.12,0.77,1.72,1.15,3,1.9C77.72,79.55,77.9,79.22,78.24,78.57z   M73.66,96.76c-1.04-1.24-1.53-1.87-2.46-3.13c-1.14-0.03-1.7-0.05-2.78-0.1c0.56-0.74,0.84-1.11,1.39-1.86  c-0.86-1.27-1.27-1.91-2.02-3.2c1.08,0.83,1.65,1.24,2.87,2.04c0.54-0.75,0.81-1.13,1.34-1.88c0.24,1.24,0.36,1.86,0.61,3.1  c1.3,0.78,1.99,1.16,3.45,1.91c-1.26,0.02-1.87,0.02-3.06,0.01C73.25,94.89,73.39,95.52,73.66,96.76z M73.35,69.71  c0.23-0.55,0.34-0.81,0.52-1.32c0.34,1,0.52,1.51,0.89,2.55c0.96,0.79,1.47,1.18,2.58,1.95c-0.81-0.14-1.21-0.2-1.99-0.33  c0.38,1.05,0.58,1.59,0.99,2.67c-0.95-1.14-1.39-1.72-2.19-2.86c-0.77-0.12-1.15-0.18-1.89-0.3c0.31-0.61,0.45-0.91,0.71-1.48  c-0.72-1.15-1.04-1.73-1.61-2.88C72.09,68.51,72.49,68.91,73.35,69.71z M72.56,81.94c-0.98-0.04-1.45-0.07-2.38-0.12  c0.18,1.22,0.28,1.83,0.48,3.06c-0.82-1.26-1.19-1.89-1.89-3.15c-0.9-0.06-1.34-0.1-2.2-0.18c0.48-0.72,0.71-1.07,1.17-1.78  c-0.63-1.27-0.91-1.9-1.43-3.17c0.79,0.84,1.21,1.26,2.12,2.08c0.44-0.7,0.66-1.05,1.07-1.73c0.15,1.19,0.23,1.79,0.4,3  C70.9,80.76,71.43,81.16,72.56,81.94z M68.3,70.66c0.07,1.14,0.11,1.72,0.21,2.89c-0.55-1.23-0.79-1.85-1.22-3.07  c-0.65-0.12-0.96-0.18-1.59-0.3c0.41-0.65,0.6-0.96,0.98-1.59c-0.36-1.22-0.5-1.83-0.75-3.04c0.47,0.83,0.73,1.25,1.32,2.08  c0.36-0.61,0.53-0.91,0.86-1.5c0.02,1.09,0.04,1.65,0.1,2.77c0.65,0.82,1.01,1.23,1.79,2.05C69.3,70.84,68.97,70.78,68.3,70.66z   M63.21,95.11c-0.69-1.31-1.01-1.97-1.6-3.29c-0.89-0.13-1.32-0.2-2.15-0.36c0.51-0.67,0.76-1.01,1.28-1.69  c-0.54-1.33-0.78-2-1.22-3.34c0.75,0.92,1.16,1.37,2.02,2.27c0.51-0.7,0.77-1.05,1.28-1.76c0.03,1.25,0.05,1.88,0.11,3.13  c0.93,0.88,1.43,1.32,2.49,2.18c-0.99-0.09-1.47-0.13-2.39-0.25C63.08,93.25,63.12,93.88,63.21,95.11z M59.21,66.86  c-0.48-0.16-0.72-0.24-1.17-0.41c-0.32,1.18-0.48,1.77-0.77,2.97c-0.01-1.31,0-1.96,0.07-3.24c-0.45-0.18-0.67-0.27-1.09-0.46  c0.49-0.61,0.74-0.91,1.23-1.52c0.12-1.27,0.2-1.9,0.39-3.14c0.12,0.88,0.19,1.32,0.37,2.21c0.49-0.6,0.73-0.9,1.22-1.5  c-0.38,1.13-0.56,1.71-0.91,2.87C58.78,65.53,58.91,65.97,59.21,66.86z M56.14,103.52c-0.6-1.25-0.88-1.88-1.41-3.16  c-0.76-0.29-1.12-0.44-1.81-0.77c0.4-0.46,0.61-0.71,1.03-1.22c-0.48-1.29-0.7-1.94-1.11-3.25c0.67,0.99,1.02,1.47,1.78,2.44  c0.44-0.54,0.67-0.82,1.14-1.39c0.01,1.17,0.03,1.75,0.08,2.88c0.82,0.96,1.25,1.43,2.16,2.37c-0.87-0.24-1.28-0.36-2.08-0.63  C56,101.91,56.04,102.45,56.14,103.52z M53.1,83.82c0.5,0.98,0.77,1.47,1.35,2.43c0.47-0.62,0.71-0.94,1.19-1.58  c-0.11,1.23-0.16,1.85-0.24,3.07c0.64,0.96,0.98,1.44,1.72,2.38c-0.76-0.19-1.12-0.29-1.83-0.5c-0.06,1.21-0.08,1.82-0.11,3.01  c-0.42-1.33-0.61-2-0.95-3.35c-0.67-0.23-1-0.35-1.62-0.6c0.44-0.58,0.67-0.88,1.13-1.49C53.44,85.85,53.31,85.17,53.1,83.82z   M54.81,72.28c0.31,0.94,0.49,1.42,0.88,2.36c0.48-0.64,0.72-0.96,1.21-1.61c-0.24,1.22-0.35,1.83-0.56,3.06  c0.44,0.94,0.68,1.41,1.21,2.33c-0.63-0.16-0.93-0.25-1.52-0.43c-0.19,1.23-0.28,1.85-0.43,3.09c-0.23-1.35-0.32-2.03-0.46-3.38  c-0.57-0.19-0.84-0.29-1.38-0.5c0.47-0.63,0.71-0.94,1.19-1.58C54.85,74.28,54.83,73.61,54.81,72.28z M60.5,77.96  c-0.32-1.32-0.45-1.98-0.68-3.3c0.52,0.9,0.8,1.35,1.42,2.24c0.48-0.68,0.71-1.03,1.17-1.71c-0.08,1.22-0.12,1.84-0.17,3.08  c0.68,0.88,1.05,1.32,1.84,2.19c-0.79-0.1-1.17-0.15-1.92-0.27c-0.04,1.24-0.05,1.87-0.06,3.12c-0.48-1.32-0.69-1.98-1.07-3.31  c-0.72-0.13-1.07-0.19-1.75-0.34C59.78,78.98,60.02,78.64,60.5,77.96z M61.52,63.45c0.27,0.86,0.43,1.29,0.79,2.15  c0.44-0.62,0.66-0.93,1.08-1.54c-0.21,1.13-0.31,1.71-0.48,2.87c0.42,0.86,0.65,1.29,1.16,2.14c-0.58-0.13-0.86-0.2-1.42-0.33  c-0.16,1.18-0.23,1.78-0.36,2.98c-0.25-1.28-0.34-1.92-0.49-3.19c-0.54-0.14-0.81-0.21-1.32-0.36c0.46-0.64,0.69-0.96,1.14-1.59  C61.53,65.31,61.52,64.68,61.52,63.45z M65.35,58.45c-0.37-0.17-0.55-0.25-0.92-0.41c-0.3,1.06-0.44,1.6-0.71,2.7  c0.01-1.19,0.04-1.78,0.15-2.95c-0.36-0.16-0.54-0.24-0.89-0.4c0.45-0.56,0.67-0.84,1.1-1.38c0.17-1.14,0.27-1.71,0.53-2.81  c0.02,0.78,0.04,1.18,0.13,1.98c0.42-0.53,0.63-0.79,1.02-1.3c-0.36,0.99-0.53,1.5-0.86,2.54C65.05,57.23,65.14,57.63,65.35,58.45z   M67.13,55.57c0.15,0.8,0.25,1.2,0.49,2.02c0.3-0.5,0.43-0.73,0.69-1.2c-0.13,0.96-0.18,1.45-0.27,2.45  c0.3,0.82,0.48,1.23,0.88,2.05c-0.4-0.2-0.61-0.3-1.01-0.48c-0.07,1.02-0.09,1.55-0.12,2.61c-0.26-1.16-0.36-1.74-0.49-2.89  c-0.4-0.18-0.59-0.27-0.99-0.44c0.35-0.54,0.51-0.81,0.83-1.32C67.08,57.23,67.08,56.67,67.13,55.57z M69.8,45.18  c-0.54,0.82-0.8,1.24-1.29,2.11c-0.15,0.72-0.21,1.09-0.29,1.83c-0.17-0.19-0.26-0.29-0.45-0.47c-0.47,0.9-0.69,1.36-1.11,2.31  c0.28-1.06,0.45-1.57,0.82-2.58c-0.19-0.17-0.29-0.26-0.49-0.42c0.45-0.46,0.68-0.68,1.11-1.11c0.43-0.98,0.67-1.45,1.18-2.37  c-0.23,0.67-0.33,1.01-0.52,1.72C69.19,45.77,69.4,45.57,69.8,45.18z M68.95,43c-0.68,0.79-1.02,1.2-1.66,2.05  c-0.21,0.68-0.3,1.02-0.46,1.73c-0.2-0.16-0.3-0.24-0.51-0.39c-0.62,0.88-0.92,1.34-1.5,2.27c0.43-1.03,0.67-1.53,1.17-2.51  c-0.21-0.16-0.32-0.23-0.54-0.39c0.55-0.44,0.82-0.66,1.35-1.09c0.55-0.94,0.84-1.39,1.44-2.26c-0.26,0.62-0.39,0.95-0.62,1.6  C68.17,43.6,68.43,43.4,68.95,43z M64.42,43.98c-0.23-0.16-0.34-0.25-0.58-0.42c0.6-0.4,0.9-0.6,1.5-0.99  c0.61-0.89,0.93-1.31,1.59-2.13c-0.28,0.6-0.41,0.9-0.66,1.53c0.6-0.38,0.9-0.57,1.5-0.93c-0.77,0.74-1.15,1.12-1.89,1.92  c-0.24,0.65-0.35,0.98-0.56,1.66c-0.22-0.16-0.33-0.24-0.56-0.4c-0.72,0.84-1.07,1.27-1.75,2.16  C63.56,45.39,63.84,44.91,64.42,43.98z M62.28,50.94c-0.08,0.78-0.11,1.17-0.14,1.96c0.51-0.52,0.76-0.78,1.25-1.29  c-0.53,0.99-0.78,1.5-1.27,2.53c0.01,0.8,0.02,1.21,0.09,2.03c-0.33-0.16-0.5-0.25-0.83-0.41c-0.47,1.06-0.69,1.6-1.12,2.69  c0.21-1.2,0.33-1.79,0.62-2.95c-0.32-0.17-0.48-0.26-0.8-0.43c0.52-0.54,0.77-0.81,1.28-1.34C61.69,52.58,61.88,52.02,62.28,50.94z   M61.29,49.24c-0.64,0.96-0.94,1.45-1.54,2.45c-0.09,0.8-0.12,1.21-0.16,2.03c-0.3-0.18-0.45-0.27-0.75-0.46  c-0.58,1.03-0.86,1.55-1.4,2.62c0.35-1.19,0.54-1.77,0.95-2.92c-0.29-0.19-0.44-0.29-0.73-0.5c0.55-0.5,0.83-0.75,1.39-1.25  c0.45-1.11,0.68-1.66,1.18-2.72c-0.15,0.77-0.21,1.16-0.32,1.96C60.46,49.96,60.74,49.72,61.29,49.24z M56.2,50.19  c-0.27-0.22-0.4-0.34-0.67-0.57c0.57-0.46,0.86-0.68,1.45-1.13c0.52-1.09,0.79-1.61,1.34-2.64c-0.19,0.77-0.28,1.16-0.44,1.95  c0.59-0.44,0.88-0.66,1.47-1.1c-0.7,0.91-1.04,1.37-1.71,2.33c-0.15,0.81-0.21,1.21-0.33,2.04c-0.28-0.21-0.41-0.32-0.69-0.54  c-0.65,0.98-0.96,1.49-1.58,2.51C55.48,51.88,55.72,51.31,56.2,50.19z M54.81,58.39c0,0.89,0.01,1.35,0.06,2.25  c0.52-0.56,0.78-0.85,1.3-1.41c-0.5,1.11-0.73,1.67-1.19,2.81c0.08,0.91,0.14,1.37,0.28,2.29c-0.4-0.2-0.59-0.3-0.97-0.52  c-0.44,1.15-0.65,1.73-1.05,2.91c0.15-1.31,0.25-1.96,0.47-3.24c-0.37-0.22-0.55-0.33-0.9-0.56c0.51-0.56,0.76-0.84,1.28-1.41  C54.34,60.24,54.49,59.62,54.81,58.39z M52.35,55.33c-0.07,0.9-0.1,1.36-0.14,2.27c0.53-0.52,0.8-0.78,1.33-1.29  c-0.57,1.07-0.84,1.61-1.38,2.71c-0.02,0.92-0.01,1.39,0.01,2.32c-0.33-0.24-0.5-0.36-0.81-0.61c-0.51,1.11-0.75,1.68-1.22,2.81  c0.27-1.29,0.41-1.93,0.74-3.2c-0.31-0.25-0.47-0.38-0.77-0.65c0.51-0.52,0.77-0.78,1.29-1.29C51.75,57.16,51.94,56.54,52.35,55.33  z M48.01,100.62c0.67,0.99,1.03,1.49,1.67,2.48c0.24-0.22,0.37-0.35,0.65-0.64c0.12,0.91,0.2,1.34,0.37,2.17  c0.68,0.99,1.04,1.48,1.79,2.46c-0.64-0.47-0.83-0.72-1.69-1.2c-0.09,0.8-0.13,1.19-0.2,1.92c-0.46-1.05-0.67-1.58-1.08-2.67  c-0.81-0.49-1.19-0.74-1.93-1.24c0.51-0.15,0.78-0.25,1.32-0.45C48.53,102.33,48.35,101.77,48.01,100.62z M48.36,80.61  c0.32,1.01,0.49,1.52,0.87,2.52c0.42-0.55,0.63-0.83,1.07-1.4c-0.2,1.19-0.29,1.78-0.45,2.95c0.42,1.01,0.65,1.51,1.14,2.5  c-0.57-0.27-0.84-0.41-1.37-0.7c-0.14,1.16-0.19,1.73-0.29,2.86c-0.24-1.32-0.34-1.99-0.51-3.32c-0.5-0.3-0.75-0.46-1.21-0.78  c0.38-0.5,0.58-0.76,0.98-1.29C48.47,82.62,48.42,81.95,48.36,80.61z M52.44,75.7c-0.49-0.23-0.73-0.34-1.19-0.58  c-0.29,1.2-0.43,1.8-0.68,2.99c-0.04-1.35-0.05-2.03-0.02-3.38c-0.44-0.25-0.66-0.38-1.08-0.64c0.45-0.57,0.68-0.85,1.15-1.43  c0.07-1.34,0.12-2.01,0.26-3.33c0.16,0.97,0.25,1.46,0.47,2.43c0.47-0.59,0.71-0.88,1.2-1.48c-0.35,1.19-0.52,1.79-0.83,2.99  C51.97,74.24,52.12,74.73,52.44,75.7z M47.82,56.29c0.52-0.49,0.78-0.73,1.31-1.21c0.41-1.22,0.63-1.82,1.09-3.01  c-0.12,0.9-0.17,1.35-0.27,2.26c0.54-0.48,0.81-0.72,1.35-1.2c-0.61,1.03-0.91,1.55-1.49,2.61c-0.08,0.92-0.11,1.39-0.16,2.32  c-0.29-0.27-0.43-0.4-0.71-0.67c-0.55,1.07-0.82,1.62-1.33,2.71c0.33-1.26,0.51-1.89,0.9-3.13C48.23,56.7,48.09,56.56,47.82,56.29z   M45.24,62.38c0,0.96,0,1.45,0.02,2.43c0.45-0.5,0.68-0.75,1.15-1.25c-0.46,1.11-0.68,1.66-1.09,2.77  c0.04,0.98,0.07,1.48,0.15,2.47c-0.31-0.3-0.47-0.46-0.77-0.76c-0.39,1.11-0.57,1.66-0.9,2.75c0.15-1.29,0.24-1.94,0.44-3.22  c-0.3-0.31-0.44-0.46-0.73-0.76c0.42-0.48,0.63-0.73,1.07-1.22C44.81,64.29,44.95,63.65,45.24,62.38z M42.18,61.98  c0.29-1.24,0.45-1.87,0.79-3.1c-0.03,0.93-0.03,1.39-0.02,2.33c0.5-0.5,0.69-0.74,1.16-1.23c-0.49,1.08-0.72,1.62-1.16,2.69  c0.01,0.95,0.01,1.43,0.04,2.39c-0.28-0.3-0.43-0.44-0.75-0.73c-0.46,1.08-0.69,1.61-1.12,2.68c0.23-1.25,0.35-1.87,0.62-3.12  c-0.31-0.28-0.47-0.41-0.76-0.68C41.45,62.72,41.69,62.48,42.18,61.98z M38.41,72.21c0.16-1.2,0.25-1.8,0.46-3.01  c0.06,0.92,0.1,1.38,0.2,2.31c0.43-0.46,0.65-0.69,1.1-1.15c-0.39,1.05-0.58,1.57-0.94,2.59c0.12,0.94,0.18,1.41,0.34,2.36  c-0.36-0.32-0.54-0.48-0.88-0.79c-0.34,1.01-0.5,1.5-0.8,2.48c0.09-1.17,0.15-1.76,0.29-2.95c-0.33-0.3-0.49-0.44-0.8-0.72  C37.78,72.89,37.99,72.66,38.41,72.21z M35.93,69.06c0.22-1.15,0.34-1.73,0.6-2.9c0,0.84,0,1.26,0.03,2.12  c0.41-0.51,0.62-0.76,1.04-1.27c-0.41,1.05-0.61,1.57-0.99,2.59c0.04,0.86,0.07,1.3,0.15,2.17c-0.29-0.25-0.44-0.37-0.72-0.6  c-0.36,1.01-0.53,1.5-0.86,2.48c0.15-1.11,0.24-1.68,0.43-2.82c-0.27-0.21-0.41-0.31-0.66-0.49  C35.33,69.83,35.53,69.57,35.93,69.06z M35.82,85.71c-0.03-1.01-0.04-1.53-0.03-2.58c-0.35-0.33-0.52-0.49-0.85-0.79  c0.34-0.33,0.52-0.5,0.88-0.85c0.03-1.07,0.06-1.61,0.13-2.71c0.16,0.86,0.24,1.3,0.43,2.17c0.37-0.35,0.55-0.54,0.94-0.91  c-0.27,0.93-0.39,1.38-0.63,2.26c0.21,0.88,0.32,1.33,0.57,2.22c-0.38-0.36-0.56-0.54-0.92-0.88  C36.12,84.5,36.02,84.91,35.82,85.71z M38.96,95.51c-0.11,0.65-0.16,0.96-0.26,1.54c-0.2-0.89-0.29-1.34-0.45-2.27  c-0.46-0.47-0.68-0.69-1.11-1.14c0.34-0.11,0.51-0.17,0.87-0.32c-0.15-0.96-0.21-1.45-0.32-2.44c0.33,0.88,0.5,1.32,0.87,2.21  c0.36-0.16,0.54-0.25,0.92-0.44c-0.14,0.76-0.21,1.13-0.33,1.82c0.39,0.9,0.6,1.35,1.04,2.25C39.68,96.23,39.43,95.99,38.96,95.51z   M40.04,87.9c-0.2,0.88-0.29,1.31-0.47,2.14c-0.11-1.09-0.15-1.64-0.22-2.76c-0.43-0.4-0.64-0.6-1.05-0.99  c0.38-0.29,0.57-0.44,0.97-0.76c-0.04-1.14-0.05-1.72-0.04-2.88c0.25,0.95,0.38,1.43,0.67,2.38c0.41-0.33,0.62-0.5,1.05-0.86  c-0.25,0.96-0.37,1.43-0.58,2.34c0.31,0.96,0.48,1.45,0.84,2.42C40.73,88.52,40.49,88.31,40.04,87.9z M40.41,77.09  c0.44-0.42,0.66-0.63,1.12-1.06c0.09-1.25,0.15-1.88,0.29-3.14c0.15,0.98,0.24,1.47,0.43,2.46c0.47-0.44,0.52-0.66,0.88-1.12  c-0.27,1.08-0.4,1.61-0.62,2.65c0.17,1,0.27,1.5,0.47,2.5c-0.32-0.36-0.49-0.54-0.93-0.89c-0.32,1.04-0.47,1.55-0.76,2.55  c0.02-1.23,0.04-1.85,0.1-3.09C41,77.6,40.8,77.43,40.41,77.09z M43.79,106.48c-0.06,0.43-0.09,0.62-0.16,0.97  c-0.34-0.74-0.5-1.12-0.82-1.9c-0.62-0.6-0.92-0.9-1.5-1.5c0.4,0.13,0.6,0.18,1.02,0.26c-0.3-0.82-0.45-1.24-0.73-2.11  c0.52,0.88,0.8,1.32,1.37,2.21c0.42,0.05,0.63,0.06,1.07,0.06c-0.07,0.56-0.1,0.83-0.16,1.31c0.61,0.89,0.92,1.34,1.59,2.23  C44.77,107.4,44.44,107.09,43.79,106.48z M43.94,100.61c-0.1,0.71-0.14,1.05-0.22,1.7c-0.3-0.97-0.45-1.47-0.71-2.48  c-0.59-0.51-0.87-0.76-1.42-1.27c0.4-0.11,0.6-0.17,1.02-0.32c-0.24-1.04-0.36-1.57-0.56-2.65c0.46,0.96,0.7,1.44,1.22,2.4  c0.43-0.17,0.66-0.27,1.12-0.49c-0.13,0.82-0.19,1.22-0.29,1.98c0.55,0.96,0.84,1.45,1.45,2.41  C44.88,101.38,44.56,101.12,43.94,100.61z M44.83,92.53c-0.19,0.94-0.27,1.4-0.43,2.28c-0.21-1.16-0.31-1.75-0.47-2.94  c-0.57-0.43-0.85-0.64-1.37-1.07c0.44-0.3,0.67-0.45,1.14-0.78c-0.14-1.2-0.19-1.81-0.28-3.04c0.38,1,0.63,1.5,0.99,2.51  c0.25-0.34,0.39-0.52,0.67-0.91c-0.06,1.01-0.08,1.51-0.09,2.47c0.39,1.01,0.6,1.52,1.05,2.53C45.6,93.17,45.43,92.95,44.83,92.53z   M45.4,82.64c-0.17,1.09-0.25,1.63-0.37,2.69c-0.12-1.28-0.17-1.93-0.22-3.23c-0.38-0.35-0.56-0.53-0.91-0.89  c0.32-0.43,0.49-0.66,0.85-1.12c-0.02-1.3-0.01-1.96,0.03-3.27c0.19,1.01,0.3,1.52,0.53,2.54c0.37-0.48,0.56-0.73,0.96-1.23  c-0.25,1.13-0.37,1.69-0.57,2.8c0.27,1.02,0.41,1.53,0.73,2.55C46,83.16,45.8,82.99,45.4,82.64z M46.13,70.56  c0.43-0.51,0.65-0.77,1.1-1.3c0.18-1.32,0.28-1.97,0.51-3.28c0.06,0.98,0.09,1.47,0.19,2.46c0.46-0.53,0.69-0.8,1.17-1.35  c-0.42,1.15-0.62,1.72-1,2.88c0.12,0.99,0.2,1.49,0.37,2.48c-0.39-0.28-0.57-0.42-0.94-0.7c-0.35,1.15-0.52,1.73-0.82,2.87  c0.08-1.33,0.13-1.99,0.27-3.32C46.63,71.01,46.46,70.86,46.13,70.56z M47.38,91.27c0.45,1.02,0.7,1.53,1.22,2.54  c0.34-0.43,0.52-0.66,0.89-1.13c-0.04,1.1-0.06,1.64-0.06,2.69c0.56,1.01,0.86,1.51,1.5,2.51c-0.62-0.35-0.92-0.53-1.48-0.9  c0.03,1.02,0.05,1.52,0.12,2.49c-0.42-1.22-0.62-1.83-0.97-3.08c-0.53-0.39-0.79-0.59-1.27-1c0.28-0.35,0.43-0.54,0.75-0.94  C47.77,93.19,47.63,92.56,47.38,91.27z M50.77,112.59c-0.05,0.52-0.07,0.75-0.12,1.18c-0.49-0.82-0.73-1.24-1.19-2.11  c-0.83-0.61-1.22-0.92-1.99-1.53c0.5,0.1,0.76,0.13,1.29,0.16c-0.45-0.9-0.66-1.36-1.07-2.31c0.72,0.94,1.1,1.4,1.9,2.34  c0.54,0,0.82-0.02,1.39-0.08c-0.06,0.65-0.08,0.95-0.13,1.52c0.84,0.93,1.28,1.39,2.2,2.32C52.1,113.49,51.65,113.19,50.77,112.59z   M57.71,110.75c0.19,0.91,0.3,1.35,0.53,2.18c-0.75-1.09-1.11-1.65-1.8-2.79c-0.79-0.4-1.17-0.62-1.89-1.06  c0.32-0.25,0.49-0.39,0.86-0.71c-0.65-1.16-0.95-1.75-1.53-2.94c0.8,0.97,1.23,1.46,2.12,2.41c0.39-0.36,0.6-0.56,1.03-0.99  c0.14,1.01,0.22,1.5,0.39,2.45c0.95,0.94,1.45,1.41,2.51,2.33C59,111.3,58.55,111.12,57.71,110.75z M60.26,98.28  c0.96,0.92,1.47,1.37,2.54,2.26c0.55-0.65,0.82-0.98,1.38-1.65c0.12,1.22,0.19,1.82,0.34,3.01c1.15,0.87,1.76,1.3,3.03,2.14  c-1.16-0.1-1.72-0.17-2.8-0.31c0.16,1.18,0.24,1.76,0.42,2.9c-0.86-1.24-1.27-1.87-2.05-3.14c-1.03-0.17-1.53-0.26-2.48-0.46  c0.52-0.58,0.78-0.88,1.32-1.51C61.24,100.24,60.9,99.59,60.26,98.28z M67.49,114.32c0.23,1.02,0.36,1.52,0.61,2.48  c-1-1.11-1.48-1.68-2.41-2.83c-1.14-0.24-1.68-0.38-2.72-0.67c0.51-0.42,0.78-0.64,1.32-1.13c-0.88-1.18-1.3-1.77-2.11-2.98  c1.13,0.9,1.72,1.34,2.97,2.21c0.57-0.52,0.86-0.79,1.45-1.37c0.21,1.1,0.31,1.64,0.54,2.69c1.32,0.85,2.02,1.26,3.47,2.07  C69.31,114.63,68.68,114.53,67.49,114.32z M76.72,105.3c0.31,1.21,0.47,1.8,0.78,2.99c-1.22-1.18-1.81-1.78-2.93-3  c-1.36-0.02-2.02-0.04-3.29-0.1c0.64-0.7,0.96-1.06,1.61-1.79c-1.06-1.23-1.57-1.85-2.53-3.11c1.34,0.81,2.04,1.2,3.53,1.97  c0.64-0.75,0.97-1.13,1.61-1.89c0.3,1.23,0.45,1.84,0.76,3.06c1.58,0.74,2.4,1.1,4.14,1.8C78.87,105.27,78.14,105.29,76.72,105.3z   M85.92,94.18c0.53,1.19,0.79,1.79,1.32,2.99c-1.5-1.13-2.22-1.7-3.59-2.86c-1.44,0.08-2.14,0.11-3.51,0.16  c0.59-0.79,0.88-1.18,1.45-1.96c-1.29-1.17-1.9-1.76-3.06-2.96c1.49,0.72,2.27,1.07,3.92,1.75c0.55-0.78,0.81-1.16,1.32-1.92  c0.52,1.17,0.79,1.76,1.31,2.95c1.76,0.65,2.69,0.97,4.64,1.57C88.18,94.04,87.41,94.09,85.92,94.18z M92.54,83.9  c0.86,1.01,1.3,1.52,2.17,2.55c-1.79-1-2.64-1.5-4.27-2.53c-1.34,0.02-2,0.02-3.29,0.04c0.37-0.67,0.54-1,0.86-1.64  c-1.53-1.04-2.25-1.57-3.61-2.64c1.53,0.69,2.35,1.03,4.06,1.68c0.27-0.61,0.4-0.9,0.6-1.45c0.85,0.96,1.28,1.45,2.14,2.44  c0.92,0.31,1.63,0.54,2.36,0.77c0.73,0.23,1.47,0.45,2.49,0.74C94.63,83.88,93.92,83.88,92.54,83.9z"></path>	<path class="st2" d="M145.19,43.14c-1.08-3.44-5.97-5.74-9.45-7.4c-10.24-4.89-32.05-11.58-50.25-4.25  c3.76-0.78,7.53-0.86,11.29-0.54c-6.09,0.43-14.82,2.58-19.31,9.24c9.81-9.11,36.32-11.12,56.4-0.66  c-0.49-0.09-0.98-0.13-1.46-0.21c-0.78-0.12-1.55-0.26-2.33-0.39c-0.51-0.09-1.02-0.17-1.53-0.23c-1.13-0.15-2.26-0.29-3.41-0.33  c-1.19-0.05-2.15-0.12-3.29,0.32c-0.89,0.34-1.78,0.75-2.69,1.04c-1.15,0.36-2.33,0.43-3.53,0.48c-1.06,0.04-2.4-0.1-3.42,0.22  c0.18,0.34,0.67,0.43,1.01,0.53c0.59,0.19,1.15,0.47,1.74,0.68c0.39,0.13,2.86,0.58,1.79,1.19c-0.43,0.25-1.12,0.28-0.33,0.68  c0.92,0.46,1.95,0.98,2.93,1.27c-0.35,0.31-1.66,0.31-1.27,0.99c0.03,0.05,2.93,3.63,6.28,4.65c5.2,1.59,7.63-2.52,8.47-3.36  c0.82-0.81,1.75-1.53,2.79-2.03c0.13-0.06,0.26-0.12,0.39-0.19c4.66-2.23,9.09-0.17,9.09-0.17c9.21-2.26,39.07,12.21,27.26,22.03  c2.48-3.41,2.05-15.92-24.47-21.58c-2.3-0.49-4.71,0.59-6.34,1.28c-8.27,3.53-16.49,17.87-16.13,17.92  c0.67,0.81,0.44,1.98,7.07-1.39c6.63-3.36,20.37-6.8,31.1-0.89c-9.11-3.8-23.27-1.79-30.08,2.02c-6.8,3.81-9.02,1.35-8.29,2.34  c1.41,1.91,11.56-2.3,4.9,4.54c7.25-3.89,30.21-11.4,37.29-6.06c2.96,2.24,1.78,7.21,1.11,7.63  C193.5,57.02,150.71,39.73,145.19,43.14z M129,47.6c-3.5,1.42-6.41-1.79-6.46-1.93c-0.16-0.4-0.36-3.37-3.4-3.9  c0.49,0.09,1.23-0.18,1.76-0.2c0.57-0.01,1.13,0.03,1.69,0.11c0.73,0.11,1.44,0.31,2.13,0.55c0.31,0.11,0.61,0.25,0.91,0.36  c0,0,0.7,0.24,0.49,0.32c-1.14,0.41-1.06,2.45-0.37,3.18c0.74,0.77,2.06,0.64,2.97,0.29c1.47-0.56,2.91-1.17,4.38-1.71  C131.72,45.55,130.52,46.99,129,47.6z M153.14,51.96c-0.38-0.13-0.77-0.21-1.15-0.37c-0.6-0.25-1.03-0.64-1.4-1.18  c-0.36-0.53-0.66-0.9-1.3-1.06c-0.5-0.12-1.16-0.11-1.61-0.09c0.37-0.2,0.81-0.34,1.21-0.48c0.53-0.18,1.37-0.15,1.92-0.12  c0.51,0.03,1.08,0.05,1.62,0.15c0.24,0.05,0.47,0.11,0.69,0.21c0.3,0.13,1.14,0.45,1.14,0.82c-0.5-0.02-0.95-0.39-1.45-0.32  c-0.43,0.06-0.72,0.39-0.57,0.83c0.31,0.88,1.49,1.33,2.04,2.02C153.92,52.35,153.5,52.08,153.14,51.96z"></path>	<g>		<g>			<path class="st2" d="M235.07,51.24h-27.71l-2.46,8.4h24.22l-3.22,11.13h-24.22l-5.11,17.33h-18.54l14.1-48.44h46.26L235.07,51.24    z"></path>			<path class="st2" d="M340.55,51.24h-26.87l-1.99,6.96h24.12l-3.12,10.52h-24.12l-2.18,7.8h26.77l-3.41,11.58h-45.41l14.1-48.44    h45.41L340.55,51.24z"></path>			<path class="st2" d="M391.82,51.24h-26.87l-1.99,6.96h24.12l-3.12,10.52h-24.12l-2.18,7.8h26.77l-3.41,11.58h-45.41l14.1-48.44    h45.41L391.82,51.24z"></path>			<path class="st2" d="M411.59,88.1h-24.69l14.1-48.44h23.56c20.43,0,26.96,10.29,22.8,24.67C443.19,78.56,430.89,88.1,411.59,88.1    z M419.91,51.24h-3.69l-7.38,25.28h1.8c8.89,0,15.52-1.29,18.83-12.79C432.59,52.75,428.05,51.24,419.91,51.24z"></path>			<path class="st2" d="M474.08,88.86c-25.92,0-27.15-14.08-23.65-25.73c3.5-12.03,11.16-24.22,35.19-24.22    c26.02,0,26.96,14.08,23.56,25.81C505.78,76.67,498.3,88.86,474.08,88.86z M485.06,50.86c-11.16-0.45-14,5.45-16.18,12.34    c-1.8,5.53-4.73,13.24,5.49,13.7c11.35,0.61,14.19-5.45,16.37-12.26C492.63,59.19,495.56,51.32,485.06,50.86z"></path>			<path class="st2" d="M581.18,88.1h-18.73l7.95-27.55l-17.5,27.55h-17.12l-1.7-29.14l-8.51,29.14h-18.54l14.1-48.44h25.92    l1.23,32.01l20.25-32.01h26.77L581.18,88.1z"></path>		</g>		<path class="st2" d="M266.66,39.66h-22.8l-14.1,48.44h18.73l5.3-18.16l7.95,18.16h21.76l-12.11-17.56   c10.88-1.66,15.51-7.04,17.31-13.09C290.6,50.86,291.35,39.66,266.66,39.66z M266.03,58.96l0.56,8.43l-6.79-5.21l-10.08,5.21   l5.88-8.43l-6.79-5.21h10.43l5.88-8.43l0.56,8.43h10.43L266.03,58.96z"></path>	</g></g></svg>