<svg id="Capa_1" enable-background="new 0 0 512 512" height="512" viewBox="0 0 512 512" width="512" xmlns="http://www.w3.org/2000/svg"><g><path d="m497 210h-30c-8.284 0-15-6.716-15-15v-180c0-8.284 6.716-15 15-15h30c8.284 0 15 6.716 15 15v180c0 8.284-6.716 15-15 15z"/><g><path d="m397 30c-85.467 0-155 69.533-155 155v56h150v-56c0-2.757 2.243-5 5-5h25v-150z"/><path d="m30 90h150v151h-150z"/></g><path d="m195 60h-180c-8.284 0-15-6.716-15-15v-30c0-8.284 6.716-15 15-15h180c8.284 0 15 6.716 15 15v30c0 8.284-6.716 15-15 15z"/><path d="m242 271v60c0 17.093-13.907 31-31 31s-31-13.907-31-31v-60h-150v60c0 99.804 81.196 181 181 181s181-81.196 181-181v-60zm-137 75c-8.284 0-15-6.716-15-15s6.716-15 15-15 15 6.716 15 15-6.716 15-15 15zm33 76c-8.284 0-15-6.716-15-15s6.716-15 15-15 15 6.716 15 15-6.716 15-15 15zm73 30c-8.284 0-15-6.716-15-15s6.716-15 15-15 15 6.716 15 15-6.716 15-15 15zm73-30c-8.284 0-15-6.716-15-15s6.716-15 15-15 15 6.716 15 15-6.716 15-15 15zm33-76c-8.284 0-15-6.716-15-15s6.716-15 15-15 15 6.716 15 15-6.716 15-15 15z"/></g></svg>