<svg height="512" viewBox="0 0 64 64" width="512" xmlns="http://www.w3.org/2000/svg"><path d="m33.60541 21.31146-5.65668-5.65619a3.00011 3.00011 0 0 0 -4.24261 4.24225l5.65716 5.65814a3.00057 3.00057 0 0 0 4.24213-4.2442zm-8.4848-4.24212a1.021 1.021 0 0 1 1.41357 0l5.65723 5.65625a1.00024 1.00024 0 1 1 -1.415 1.41406l-5.65629-5.65625a1.001 1.001 0 0 1 .00049-1.41406z"/><path d="m35.35547 37.13281c-.00757.00061 6.45636-6.4674 6.46094-6.46972a5.0192 5.0192 0 0 0 -.001-7.06348l-7.49241-7.49292 3.35278-3.35278a1.00377 1.00377 0 0 1 1.416-.001l7.0498 7.05176a3.00709 3.00709 0 0 0 4.24414-.001l1.41016-1.41016a3.00481 3.00481 0 0 0 0-4.24414l-9.16988-9.16988a6.00491 6.00491 0 0 0 -8.48438 0l-5.47262 5.47266a5.05929 5.05929 0 0 0 -7.417-.34271l-3.63037 3.62982a5.07544 5.07544 0 0 0 .343 7.41723l-2.79272 2.79273a3.0039 3.0039 0 0 0 0 4.24414l1.41009 1.41113a3.00649 3.00649 0 0 0 4.24365-.001l2.79316-2.79316 1.22589 1.22577-21.67282 21.6729a4.00237 4.00237 0 0 0 0 5.6543l4.1499 4.15039a4.00268 4.00268 0 0 0 5.65381 0c4.06677-4.06819 18.08429-18.08437 22.37988-22.38088zm.20019-30.73926a4.00564 4.00564 0 0 1 5.65625 0l9.16993 9.16993a1.002 1.002 0 0 1 0 1.416l-1.41016 1.40918a1.00377 1.00377 0 0 1 -1.416.001l-7.0498-7.05176a3.00659 3.00659 0 0 0 -4.24414.001l-3.353 3.35339-2.8258-2.826zm-16.144 21.7959a1.00376 1.00376 0 0 1 -1.416 0l-1.40972-1.41015a1.00288 1.00288 0 0 1 0-1.416l2.79278-2.79278 2.826 2.8258zm-7.8501 29.91016a1.99985 1.99985 0 0 1 -2.82568 0l-4.1499-4.15039a2.00045 2.00045 0 0 1 0-2.82617l22.37984-22.37989a1.0056 1.0056 0 0 0 0-1.41406l-6.879-6.8786-1.05115-1.05109a3.02269 3.02269 0 0 1 .00007-4.24609l3.63026-3.62988a3.00281 3.00281 0 0 1 4.2456 0l13.48977 13.49023a3.00985 3.00985 0 0 1 0 4.23535l-5.75714 5.75849a4.07072 4.07072 0 0 0 -6.01239-.34827l-12.02 12.02045a4.06079 4.06079 0 0 0 .35858 6.00885zm6.82278-6.82561a2.09476 2.09476 0 0 1 -.3584-3.1803l12.02289-12.02339a2.09464 2.09464 0 0 1 3.18164.35157z"/><path d="m59.999 37.96063v-8.18426a.99942.99942 0 0 0 -1-1h-8a.99942.99942 0 0 0 -1 1v8.18426a2.99514 2.99514 0 0 0 0 5.63141v1.42456a3.75932 3.75932 0 0 1 -3.75 3.75977h-2.43424a2.99517 2.99517 0 0 0 -5.63147 0h-8.18475a.99973.99973 0 0 0 -1 1v8a.99974.99974 0 0 0 1 1h8.18481a2.99514 2.99514 0 0 0 5.63141 0h2.43424a13.9209 13.9209 0 0 0 13.75-15.18427 2.99517 2.99517 0 0 0 0-5.63147zm-22 18.81574h-7.00046v-6h7.00046zm4 1a1.00011 1.00011 0 0 1 -2-.00006v-7.99994a1.00011 1.00011 0 0 1 2 0zm10-27h6v7h-6zm-5.75 26h-2.25v-6h2.25a5.7613 5.7613 0 0 0 5.75-5.75977v-1.24023h6a11.90139 11.90139 0 0 1 -11.75 13zm12.75-15c-.08313-.00189-8.02789.00134-8.00006 0a1.00011 1.00011 0 0 1 .00012-2h7.99994a1.00011 1.00011 0 0 1 0 2z"/></svg>