<svg id="a" height="512" viewBox="0 0 64 64" width="512" xmlns="http://www.w3.org/2000/svg"><path d="m50.64052 13.85461c-2.66772-1.40259-5.74341-2.22162-8.78143-2.32739-.4375-1.73438-1.99817-3.02722-3.86646-3.02722h-28c-2.20557 0-4 1.79443-4 4v3c0 .55225.44775 1 1 1s1-.44775 1-1v-3c0-1.10303.89697-2 2-2h28c1.10303 0 2 .89697 2 2v25h-29c-1.6543 0-3-1.3457-3-3v-1c0-.55273-.44775-1-1-1s-1 .44727-1 1v1c0 1.56628.73883 2.94946 1.86975 3.86694-3.53339 2.45618-1.66516 8.18054 2.63037 8.133l3.59021.00006c-.659 3.60419 2.24683 7.03607 5.90973 6.99994 3.66229.03632 6.56927-3.39606 5.90961-6.99994h16.18066c-.659 3.60419 2.24683 7.03607 5.90973 6.99994 3.66229.03632 6.56927-3.39606 5.90961-6.99994h4.09033c2.20557 0 4-1.79395 4-4v-10c.04773-7.7702-4.43976-15.11761-11.35211-18.64539zm-30.64789 37.64539c-5.28625-.16779-5.28503-7.83307.00012-8 5.28619.16772 5.28491 7.83301-.00012 8zm28 0c-5.28625-.16779-5.28503-7.83307.00012-8 5.28619.16772 5.28491 7.83301-.00012 8zm12-9.5c.01306 1.60791-1.46338 2.68732-3 2.5v-3c0-1.10254.89697-2 2-2h1zm0-4.5h-1c-2.20557 0-4 1.79395-4 4v3h-1.81177c-2.14404-3.95068-8.2334-3.94916-10.37646 0h-17.62354c-2.14404-3.95068-8.2334-3.94916-10.37646 0h-4.31177c-3.29254-.08502-3.29773-4.91003.00012-5h30.49988c.55225 0 1-.44727 1-1v-24.97363c1.01031.05261 2.01105.2077 3 .41888v14.55475c0 2.75684 2.24316 5 5 5h10zm-10-6c-1.6543 0-3-1.3457-3-3v-14.02362c7.2807 2.32678 12.66504 9.38135 12.95789 17.02362z"/><path d="m44.99263 36.5c0 .55273.44775 1 1 1h7c.55225 0 1-.44727 1-1s-.44775-1-1-1h-7c-.55225 0-1 .44727-1 1z"/><path d="m2.99263 19.5h6c1.31262-.02179 1.31573-1.97766 0-2h-6c-1.31262.02179-1.31567 1.9776 0 2z"/><path d="m3.99263 24.5c0 .55225.44775 1 1 1h7c.55225 0 1-.44775 1-1s-.44775-1-1-1h-7c-.55225 0-1 .44775-1 1z"/><path d="m2.99263 31.5h7c1.31238-.02136 1.31604-1.97797 0-2h-7c-1.31238.0213-1.31598 1.97797 0 2z"/><path d="m33.99263 30.5v-12c0-.55225-.44775-1-1-1s-1 .44775-1 1v12c.021 1.31079 1.97772 1.31732 2 0z"/><path d="m26.99263 30.5v-12c0-.55225-.44775-1-1-1s-1 .44775-1 1v12c.021 1.31079 1.97772 1.31732 2 0z"/><path d="m19.99263 30.5v-12c0-.55225-.44775-1-1-1s-1 .44775-1 1v12c.021 1.31079 1.97772 1.31732 2 0z"/><path d="m29.99263 55.5c1.30841-.02014 1.31927-1.9776-.00006-2h-18.99994c-.55225 0-1 .44727-1 1s.44775 1 1 1z"/><path d="m54.99263 55.5c1.30878-.02026 1.31903-1.9776-.00006-2h-17.99994c-.55225 0-1 .44727-1 1s.44775 1 1 1z"/><path d="m60.99263 55.5c1.3139-.02185 1.31476-1.97815 0-2h-2c-1.31384.02179-1.31476 1.97809.00006 2z"/></svg>